<?xml version="1.0" encoding="UTF-8"?>
<svg version="1.1" xmlns="http://www.w3.org/2000/svg" width="547" height="456">
<path d="M0 0 C2.71159224 0.00315782 5.42208657 -0.0203915 8.13354492 -0.0456543 C19.69922525 -0.08779127 30.58462502 1.01329413 41.9128418 3.31567383 C42.92435303 3.51443115 43.93586426 3.71318848 44.97802734 3.91796875 C63.68527786 7.7640748 81.16626782 14.16044564 97.9128418 23.31567383 C98.96084961 23.88608398 98.96084961 23.88608398 100.0300293 24.46801758 C110.44238709 30.20045283 119.82095234 36.67418162 128.9128418 44.31567383 C129.52321289 44.82453125 130.13358398 45.33338867 130.76245117 45.85766602 C144.05422645 56.96628442 144.05422645 56.96628442 149.9128418 63.31567383 C150.44651367 63.8905957 150.98018555 64.46551758 151.5300293 65.05786133 C157.03634927 71.17317521 161.94413183 77.76488706 166.9128418 84.31567383 C167.49420898 85.06204102 168.07557617 85.8084082 168.67456055 86.57739258 C172.53843486 91.57710396 175.79228677 96.8246972 178.9128418 102.31567383 C179.5315918 103.38301758 180.1503418 104.45036133 180.7878418 105.55004883 C197.31130039 134.75657668 204.36498313 167.94280967 204.2878418 201.25317383 C204.28763031 202.10262573 204.28741882 202.95207764 204.28720093 203.82727051 C204.25143909 218.29268111 203.12529867 232.17306005 199.9128418 246.31567383 C199.72028809 247.18015137 199.52773438 248.04462891 199.3293457 248.93530273 C194.51813543 269.97681133 186.14732978 288.87090004 175.0378418 307.31567383 C174.5612915 308.11215332 174.08474121 308.90863281 173.59375 309.72924805 C173.14475342 310.45901855 172.69575684 311.18878906 172.2331543 311.94067383 C171.83370605 312.59293945 171.43425781 313.24520508 171.02270508 313.91723633 C170.6564502 314.3787207 170.29019531 314.84020508 169.9128418 315.31567383 C169.2528418 315.31567383 168.5928418 315.31567383 167.9128418 315.31567383 C167.66663086 316.03368164 167.42041992 316.75168945 167.16674805 317.49145508 C159.85342539 333.96351827 140.81476575 349.41001461 126.9128418 360.31567383 C126.39286621 360.72849609 125.87289063 361.14131836 125.3371582 361.56665039 C114.48203896 370.17892244 103.40144964 377.27508479 90.9128418 383.31567383 C89.66249927 383.98169787 88.41246147 384.64829453 87.1628418 385.31567383 C64.78371995 396.4131396 37.81315984 402.87912071 12.9128418 403.31567383 C12.0967041 403.33082031 11.28056641 403.3459668 10.43969727 403.36157227 C-6.68323819 403.62279658 -23.30101991 402.99467075 -40.0871582 399.31567383 C-40.82885254 399.16146973 -41.57054687 399.00726563 -42.3347168 398.84838867 C-67.49282528 393.55277843 -90.29360709 382.81912969 -111.7121582 368.81567383 C-112.68209717 368.18338867 -112.68209717 368.18338867 -113.67163086 367.53833008 C-115.18247222 366.51969153 -116.64128661 365.42460189 -118.0871582 364.31567383 C-118.0871582 363.65567383 -118.0871582 362.99567383 -118.0871582 362.31567383 C-119.1080957 362.00629883 -119.1080957 362.00629883 -120.1496582 361.69067383 C-124.00355196 359.88672356 -127.16503584 357.41463933 -130.0871582 354.31567383 C-130.0871582 353.65567383 -130.0871582 352.99567383 -130.0871582 352.31567383 C-130.67343994 352.05391357 -131.25972168 351.79215332 -131.86376953 351.52246094 C-134.21146869 350.24820191 -135.7729771 348.88828505 -137.66137695 347.00708008 C-138.32435791 346.34836914 -138.98733887 345.6896582 -139.67041016 345.01098633 C-140.36481201 344.3071582 -141.05921387 343.60333008 -141.7746582 342.87817383 C-142.49290771 342.15243164 -143.21115723 341.42668945 -143.95117188 340.67895508 C-182.02083564 301.83885945 -200.3569744 250.24518586 -200.0871582 196.31567383 C-199.81886734 189.26824772 -199.01685109 182.30220521 -198.0871582 175.31567383 C-197.98918945 174.52 -197.8912207 173.72432617 -197.7902832 172.90454102 C-194.68523051 148.03347751 -186.66646171 123.98939246 -174.0871582 102.31567383 C-173.75039062 101.73414551 -173.41362305 101.15261719 -173.06665039 100.5534668 C-168.87638323 93.38823048 -164.31759649 86.75041168 -159.0871582 80.31567383 C-157.83357504 78.71430568 -156.58354448 77.11014985 -155.3371582 75.50317383 C-154.78543945 74.79547852 -154.2337207 74.0877832 -153.6652832 73.35864258 C-152.57758227 71.95055449 -151.52717818 70.5131282 -150.5090332 69.05395508 C-150.03981445 68.48032227 -149.5705957 67.90668945 -149.0871582 67.31567383 C-148.4271582 67.31567383 -147.7671582 67.31567383 -147.0871582 67.31567383 C-146.76038086 66.50163086 -146.76038086 66.50163086 -146.42700195 65.67114258 C-144.63373698 62.51855138 -142.21618854 60.14868584 -139.6496582 57.62817383 C-139.12194824 57.10578125 -138.59423828 56.58338867 -138.05053711 56.04516602 C-123.99016332 42.31567383 -123.99016332 42.31567383 -120.0871582 42.31567383 C-120.0871582 41.65567383 -120.0871582 40.99567383 -120.0871582 40.31567383 C-117.97407777 38.71625341 -115.86944309 37.25480547 -113.6496582 35.81567383 C-112.97588135 35.37497559 -112.30210449 34.93427734 -111.60791016 34.48022461 C-90.36749664 20.71414964 -68.85383345 10.39107435 -44.0871582 4.62817383 C-43.221875 4.42554932 -42.3565918 4.2229248 -41.46508789 4.01416016 C-27.62192999 0.93147254 -14.13067527 -0.03427003 0 0 Z " fill="#363636" transform="translate(271.087158203125,26.684326171875)"/>
<path d="M0 0 C7.50555421 5.85500143 14.43578757 12.01143407 19.62890625 20.05078125 C20.11359375 20.79328125 20.59828125 21.53578125 21.09765625 22.30078125 C25.9991142 31.10339961 28.79414953 41.29394867 30.50390625 51.17578125 C30.62378906 51.84182373 30.74367188 52.50786621 30.8671875 53.1940918 C32.00741924 60.58888173 31.62890625 67.35648793 31.62890625 75.05078125 C-5.00109375 75.05078125 -41.63109375 75.05078125 -79.37109375 75.05078125 C-78.36753141 90.10421639 -77.12007277 100.69582192 -67.37109375 112.05078125 C-66.38109375 112.71078125 -65.39109375 113.37078125 -64.37109375 114.05078125 C-64.37109375 114.71078125 -64.37109375 115.37078125 -64.37109375 116.05078125 C-50.29943442 123.27961372 -34.94734238 127.81694579 -19.21484375 122.9140625 C-16.18865807 121.74576737 -13.29795261 120.44215728 -10.37109375 119.05078125 C-9.71109375 119.05078125 -9.05109375 119.05078125 -8.37109375 119.05078125 C-8.37109375 118.39078125 -8.37109375 117.73078125 -8.37109375 117.05078125 C-2.89490327 112.05078125 -2.89490327 112.05078125 -0.37109375 112.05078125 C-0.26796875 111.53515625 -0.16484375 111.01953125 -0.05859375 110.48828125 C0.86765548 107.20430671 2.26547897 104.17530211 3.62890625 101.05078125 C4.12390625 99.56578125 4.12390625 99.56578125 4.62890625 98.05078125 C12.54890625 98.05078125 20.46890625 98.05078125 28.62890625 98.05078125 C28.62890625 104.8046274 28.62890625 104.8046274 26.87890625 108.42578125 C26.50636719 109.19792969 26.13382813 109.97007812 25.75 110.765625 C25.38003906 111.51972656 25.01007813 112.27382813 24.62890625 113.05078125 C24.35175781 113.71207031 24.07460938 114.37335938 23.7890625 115.0546875 C19.54917887 124.72631144 11.68264019 131.91467665 2.62890625 137.05078125 C1.50935547 137.71013672 1.50935547 137.71013672 0.3671875 138.3828125 C-12.80769177 145.59088695 -25.74972952 146.69608729 -40.37109375 146.05078125 C-41.63566406 146.01855469 -42.90023437 145.98632812 -44.203125 145.953125 C-59.5194552 145.29453969 -74.67203792 139.32282878 -85.328125 127.96484375 C-94.01161894 117.25215438 -99.9122974 106.42440916 -103.37109375 93.05078125 C-103.63696289 92.06078125 -103.90283203 91.07078125 -104.17675781 90.05078125 C-106.16964134 82.14979171 -106.88152167 74.74911962 -106.80859375 66.61328125 C-106.80174561 65.43113037 -106.79489746 64.24897949 -106.7878418 63.03100586 C-106.62851309 54.37175918 -105.6709895 47.11719307 -102.37109375 39.05078125 C-101.99726563 38.0246875 -101.6234375 36.99859375 -101.23828125 35.94140625 C-96.62097787 23.89360802 -89.21371669 11.48572269 -78.37109375 4.05078125 C-77.71109375 4.05078125 -77.05109375 4.05078125 -76.37109375 4.05078125 C-76.37109375 3.39078125 -76.37109375 2.73078125 -76.37109375 2.05078125 C-55.79297224 -13.08763191 -21.0584914 -14.65620787 0 0 Z " fill="#F9F9F9" transform="translate(232.37109375,159.94921875)"/>
<path d="M0 0 C4.6263658 -0.1237709 9.25176461 -0.21441516 13.87939453 -0.2746582 C15.45280751 -0.29977448 17.02610412 -0.33387472 18.59912109 -0.37719727 C20.86324772 -0.43798399 23.12583022 -0.46623582 25.390625 -0.48828125 C26.44240936 -0.52699089 26.44240936 -0.52699089 27.51544189 -0.56648254 C31.25653718 -0.56862198 32.68668758 -0.31254087 35.37939453 2.37353516 C36.94104048 4.90444614 38.49424968 7.43539317 40 10 C41.11102256 11.61387874 42.23640602 13.21795322 43.375 14.8125 C52 27.06329618 52 27.06329618 52 30 C52.66 30 53.32 30 54 30 C55.4453125 32.01953125 55.4453125 32.01953125 57.125 34.8125 C62.89011938 44.41168808 62.89011938 44.41168808 70 53 C70.54011719 52.18015625 71.08023438 51.3603125 71.63671875 50.515625 C74.28706546 46.54068743 77.04958111 42.64713775 79.8125 38.75 C80.89340743 37.2227824 81.9741379 35.69543954 83.0546875 34.16796875 C83.56870117 33.4414209 84.08271484 32.71487305 84.61230469 31.96630859 C86.23125477 29.67232126 87.83575682 27.36852724 89.4375 25.0625 C92.85276523 20.17748132 96.33100033 15.33791581 99.8125 10.5 C100.38863037 9.69699463 100.96476074 8.89398926 101.55834961 8.06665039 C102.10241455 7.31246826 102.64647949 6.55828613 103.20703125 5.78125 C103.6966333 5.10126953 104.18623535 4.42128906 104.69067383 3.72070312 C106 2 106 2 108 0 C110.98095703 -0.22705078 110.98095703 -0.22705078 114.7578125 -0.1953125 C115.75238968 -0.19106766 115.75238968 -0.19106766 116.76705933 -0.18673706 C118.88655583 -0.17553435 121.00563104 -0.15043051 123.125 -0.125 C124.56119182 -0.11497028 125.99739025 -0.10584441 127.43359375 -0.09765625 C130.95586628 -0.075595 134.47789203 -0.04106494 138 0 C136.28163071 3.58439602 134.17680082 6.5301826 131.75 9.6875 C128.93114543 13.37878978 126.21546841 17.10136842 123.6875 21 C121.71243363 24.0394077 119.61805031 26.47891452 117 29 C116.505 30.485 116.505 30.485 116 32 C115.34 32 114.68 32 114 32 C113.7421875 32.55816406 113.484375 33.11632812 113.21875 33.69140625 C109.43284045 40.86279262 103.87393409 47.20340043 98.9375 53.625 C98.51815186 54.172771 98.09880371 54.72054199 97.66674805 55.28491211 C95.74731334 57.78118727 93.79994994 60.23795429 91.7734375 62.6484375 C91.12632812 63.42445313 90.47921875 64.20046875 89.8125 65 C89.24144531 65.66 88.67039062 66.32 88.08203125 67 C86.83006583 68.95101527 86.83006583 68.95101527 86.94921875 71.25 C88.24131348 74.6315416 90.11913664 77.0606349 92.34619141 79.89404297 C93.9064357 81.88085537 95.3762876 83.90308951 96.82421875 85.97265625 C97.28997314 86.6370874 97.75572754 87.30151855 98.2355957 87.98608398 C98.71472412 88.67130127 99.19385254 89.35651855 99.6875 90.0625 C104.11558302 96.36857396 108.62011974 102.61070273 113.19482422 108.81103516 C116.35105375 113.09506611 119.42190462 117.43106952 122.453125 121.8046875 C123.94772385 123.92581011 125.49150874 125.99753726 127.0625 128.0625 C129.08681515 130.73139971 130.98009216 133.44601328 132.8125 136.25 C136.04366902 141.18722626 139.63321887 145.83302042 143.2421875 150.49609375 C145 153 145 153 145 155 C140.51601216 155.09903473 136.03260708 155.17154483 131.54785156 155.21972656 C130.02299915 155.23981599 128.49822352 155.26709316 126.97363281 155.30175781 C124.77910402 155.35039796 122.58559531 155.37299396 120.390625 155.390625 C119.07094727 155.41157227 117.75126953 155.43251953 116.39160156 155.45410156 C113 155 113 155 110.62011719 153.13964844 C108.67610451 150.57223929 107.44221124 147.88442248 106 145 C102.99352225 140.39656524 99.85743327 135.90401406 96.25 131.75 C93.94217971 128.92933076 92.6264779 126.2529558 91 123 C89.36876974 120.55971452 87.66955745 118.17463866 85.96484375 115.78515625 C83.17994454 111.83757547 80.53002085 107.8039518 77.8671875 103.7734375 C76.29946408 101.44481066 74.67911172 99.18580214 73 96.9375 C71 94 71 94 71 91 C66.75790091 94.72790526 64.04773529 98.91768753 61.0859375 103.703125 C58.64837545 107.55575116 56.09012202 111.31144044 53.5 115.0625 C53.02675293 115.74844238 52.55350586 116.43438477 52.06591797 117.14111328 C48.88408243 121.74248612 45.67766614 126.32618491 42.4375 130.88671875 C41.45849556 132.32596169 40.52333992 133.79579148 39.62890625 135.2890625 C37.50314546 138.8268994 35.22583723 142.2533287 32.9375 145.6875 C32.49083984 146.36361328 32.04417969 147.03972656 31.58398438 147.73632812 C31.15279297 148.38408203 30.72160156 149.03183594 30.27734375 149.69921875 C29.88796631 150.28533936 29.49858887 150.87145996 29.09741211 151.4753418 C28 153 28 153 26 155 C23.01904297 155.22705078 23.01904297 155.22705078 19.2421875 155.1953125 C18.57913605 155.1924826 17.91608459 155.18965271 17.23294067 155.18673706 C15.11344417 155.17553435 12.99436896 155.15043051 10.875 155.125 C9.43880818 155.11497028 8.00260975 155.10584441 6.56640625 155.09765625 C3.04413372 155.075595 -0.47789203 155.04106494 -4 155 C-2.43572287 150.86345247 -0.53197835 147.81833353 2.1875 144.3125 C7.42470764 137.47225685 12.33454325 130.44739356 17.18359375 123.328125 C18.04645996 122.06270874 18.04645996 122.06270874 18.92675781 120.77172852 C20.0805422 119.07832755 21.23231071 117.38355094 22.38183594 115.68725586 C25.12328861 111.66007996 27.9416315 107.79430728 31 104 C33.03178073 101.18891606 35.01527995 98.3444379 37 95.5 C40.21607984 90.89081627 43.44569249 86.35816419 47 82 C50.59450052 77.416594 50.59450052 77.416594 52 72 C50.24850483 69.47661498 50.24850483 69.47661498 48 67 C47.5875 66.29101562 47.175 65.58203125 46.75 64.8515625 C44.35727169 60.95269717 41.55540699 57.42104696 38.75 53.8125 C25 35.96447579 25 35.96447579 25 33 C23.515 32.505 23.515 32.505 22 32 C21.02358982 30.61955802 20.05753508 29.22995146 19.16015625 27.796875 C17.90258839 25.8491268 16.53473005 24.02787866 15.125 22.1875 C11.89064345 17.91294837 8.9438311 13.47707647 6 9 C4.00265816 5.99822568 2.00168308 2.99888079 0 0 Z " fill="#FAFAFA" transform="translate(275,151)"/>
<path d="M0 0 C0.69996094 0.24492187 1.39992187 0.48984375 2.12109375 0.7421875 C11.62159555 4.46335458 20.19384277 11.2525266 24.703125 20.48828125 C25.22780573 21.75932031 25.74332397 23.03417706 26.25 24.3125 C26.6521875 25.25125977 26.6521875 25.25125977 27.0625 26.20898438 C27.31515625 26.83740234 27.5678125 27.46582031 27.828125 28.11328125 C28.0540332 28.66798096 28.27994141 29.22268066 28.51269531 29.79418945 C29.24738804 33.11981511 29 36.59418741 29 40 C0.62 40 -27.76 40 -57 40 C-54.58950068 24.33175442 -51.25059516 14.28402175 -38.625 4.625 C-27.2366521 -3.11106312 -13.10765152 -4.59917597 0 0 Z " fill="#383838" transform="translate(209,174)"/>
<path d="M0 0 C1.32 0 2.64 0 4 0 C2.8141763 3.37503669 1.72426311 5.64722731 -1 8 C-2.98 4.535 -2.98 4.535 -5 1 C-3.68 1 -2.36 1 -1 1 C-0.67 0.67 -0.34 0.34 0 0 Z " fill="#434343" transform="translate(345,197)"/>
<path d="M0 0 C0.33 0.66 0.66 1.32 1 2 C-0.07192184 3.3218362 -1.15802695 4.63217927 -2.25 5.9375 C-2.85328125 6.66839844 -3.4565625 7.39929688 -4.078125 8.15234375 C-6.10741134 10.10326334 -7.254407 10.61731779 -10 11 C-6.79239749 7.19364503 -3.59253891 3.45436433 0 0 Z " fill="#808080" transform="translate(137,79)"/>
<path d="M0 0 C2.625 -0.1875 2.625 -0.1875 5 0 C5 0.99 5 1.98 5 3 C2.5 5.1875 2.5 5.1875 0 7 C0 6.01 0 5.02 0 4 C-0.66 3.67 -1.32 3.34 -2 3 C-1.34 2.01 -0.68 1.02 0 0 Z " fill="#585757" transform="translate(418,361)"/>
<path d="M0 0 C0.598125 0.309375 1.19625 0.61875 1.8125 0.9375 C4.08956772 2.10209704 4.08956772 2.10209704 7 3 C6.67 4.65 6.34 6.3 6 8 C3.525 7.01 3.525 7.01 1 6 C1 4.68 1 3.36 1 2 C0.67 1.34 0.34 0.68 0 0 Z " fill="#4D4B4C" transform="translate(152,385)"/>
<path d="M0 0 C0.99 0.33 1.98 0.66 3 1 C1.35 2.65 -0.3 4.3 -2 6 C-2.33 5.34 -2.66 4.68 -3 4 C-3.66 3.67 -4.32 3.34 -5 3 C-2.6875 1.4375 -2.6875 1.4375 0 0 Z " fill="#565455" transform="translate(394,386)"/>
<path d="M0 0 C0.33 0.66 0.66 1.32 1 2 C0.02616054 3.68208635 -0.97695052 5.34738161 -2 7 C-2.69579454 9.19130534 -2.69579454 9.19130534 -3 11 C-3.99 11 -4.98 11 -6 11 C-4.54955729 6.89041233 -2.48889248 3.56741255 0 0 Z " fill="#7F7E7E" transform="translate(106,115)"/>
<path d="M0 0 C0.66 0.66 1.32 1.32 2 2 C-0.31 4.64 -2.62 7.28 -5 10 C-5.66 9.67 -6.32 9.34 -7 9 C-4.69 6.03 -2.38 3.06 0 0 Z " fill="#D8D8D8" transform="translate(383,151)"/>
<path d="M0 0 C0.33 0.66 0.66 1.32 1 2 C-0.98 4.64 -2.96 7.28 -5 10 C-5.66 9.67 -6.32 9.34 -7 9 C-4.69 6.03 -2.38 3.06 0 0 Z " fill="#8A898A" transform="translate(122,94)"/>
<path d="M0 0 C0.66 1.32 1.32 2.64 2 4 C1.01 5.485 1.01 5.485 0 7 C-1.32 6.01 -2.64 5.02 -4 4 C-2.68 2.68 -1.36 1.36 0 0 Z " fill="#5C5C5C" transform="translate(145,72)"/>
<path d="M0 0 C0.66 0.99 1.32 1.98 2 3 C0.35 4.32 -1.3 5.64 -3 7 C-3.1875 4.625 -3.1875 4.625 -3 2 C-2.01 1.34 -1.02 0.68 0 0 Z " fill="#555354" transform="translate(413,369)"/>
<path d="M0 0 C0.433125 0.45375 0.86625 0.9075 1.3125 1.375 C3.10798342 3.20024334 3.10798342 3.20024334 6 5 C2.7 4.67 -0.6 4.34 -4 4 C-2.68 3.34 -1.36 2.68 0 2 C0 1.34 0 0.68 0 0 Z " fill="#777676" transform="translate(246,424)"/>
<path d="M0 0 C0.66 0.99 1.32 1.98 2 3 C1.34 4.32 0.68 5.64 0 7 C-0.66 7 -1.32 7 -2 7 C-1.125 1.125 -1.125 1.125 0 0 Z " fill="#434142" transform="translate(389,387)"/>
</svg>
