<?xml version="1.0" encoding="UTF-8"?>
<svg version="1.1" xmlns="http://www.w3.org/2000/svg" width="1280" height="1280">
<path d="M0 0 C422.4 0 844.8 0 1280 0 C1280 422.4 1280 844.8 1280 1280 C857.6 1280 435.2 1280 0 1280 C0 857.6 0 435.2 0 0 Z " fill="#1B1F23" transform="translate(0,0)"/>
<path d="M0 0 C1.53575684 0.00090637 1.53575684 0.00090637 3.10253906 0.00183105 C18.39921632 0.0263373 33.48395663 0.372446 48.6875 2.1875 C50.40767334 2.38085938 50.40767334 2.38085938 52.16259766 2.578125 C70.60232007 4.68023876 88.63057267 7.91675032 106.6875 12.1875 C107.53747559 12.38424316 108.38745117 12.58098633 109.26318359 12.78369141 C180.58246288 29.47986623 245.95603408 66.97399518 299.6875 116.1875 C300.20344727 116.65833008 300.71939453 117.12916016 301.25097656 117.61425781 C309.79308175 125.41400741 318.22905228 133.20981371 325.77734375 141.99609375 C328.01393818 144.5620027 330.31874067 147.0590643 332.625 149.5625 C402.30260237 226.22872417 439.47105226 330.63975928 439.50146484 472.89990234 C439.00234481 481.06981628 437.98715354 489.10936824 436.6875 497.1875 C436.46481536 498.61604375 436.24216073 500.04459218 436.01953125 501.47314453 C425.61960423 567.22150778 401.68563694 630.3386802 363.6875 685.1875 C363.28321777 685.77192871 362.87893555 686.35635742 362.46240234 686.95849609 C352.68067702 701.02820723 342.01370705 714.33368976 330.6875 727.1875 C329.74704834 728.26149048 329.74704834 728.26149048 328.78759766 729.35717773 C322.78135301 736.13329498 316.47804547 742.58314578 310.07714844 748.9831543 C308.31674948 750.74574523 306.56453618 752.51621039 304.8125 754.28710938 C298.07694203 761.05574077 291.17869837 767.2548888 283.6875 773.1875 C282.58540112 774.12196034 281.48906777 775.06332832 280.40234375 776.015625 C245.13873994 806.7658843 178.78613291 854.96022921 130.51953125 853.53515625 C124.78091976 852.83069222 120.64360115 850.54749608 116.8125 846.25 C113.58581213 841.59977337 112.43844532 838.06374242 112.42921448 832.41259766 C112.42238647 831.25809113 112.41555847 830.10358459 112.40852356 828.91409302 C112.41107651 827.65595795 112.41362946 826.39782288 112.41625977 825.1015625 C112.41186945 823.75560187 112.40656618 822.40964395 112.40042114 821.06369019 C112.38893185 818.16687358 112.38346241 815.27013002 112.38253975 812.37329102 C112.38059065 807.77158038 112.36248459 803.17001872 112.34178162 798.56835938 C112.29267839 787.12451278 112.26188357 775.68062523 112.24047852 764.23669434 C112.22384986 755.3659325 112.20070016 746.4952978 112.15745777 737.62462044 C112.13944699 733.81051628 112.12703936 729.99658442 112.12875557 726.18243408 C112.13937554 692.33496581 109.61380139 660.87554486 86.6875 634.1875 C85.68192206 632.85836841 84.68109376 631.52561406 83.6875 630.1875 C84.40067383 630.08727539 85.11384766 629.98705078 85.84863281 629.88378906 C130.78487246 623.52202929 177.10686069 613.75301834 213.6875 585.1875 C215.12802734 584.07955078 215.12802734 584.07955078 216.59765625 582.94921875 C234.13605897 569.06156652 247.5677495 552.06539946 257.6875 532.1875 C258.28949219 531.02347656 258.89148438 529.85945312 259.51171875 528.66015625 C284.79387322 477.24363986 290.41738686 408.44792122 271.98876953 354.12792969 C265.26360472 334.95363989 254.84252937 316.45319933 240.8671875 301.640625 C239.6875 300.1875 239.6875 300.1875 239.6875 298.1875 C239.0275 298.1875 238.3675 298.1875 237.6875 298.1875 C237.97359307 296.79051364 238.26666905 295.3949567 238.5625 294 C238.72492187 293.22269531 238.88734375 292.44539063 239.0546875 291.64453125 C239.6875 289.1875 239.6875 289.1875 240.66015625 286.90234375 C242.01289241 283.32762271 242.62221673 279.69091319 243.25 275.9375 C243.37568359 275.22464844 243.50136719 274.51179688 243.63085938 273.77734375 C246.72691887 255.78453728 246.94225536 237.17105332 243.6875 219.1875 C243.50445313 218.03121094 243.32140625 216.87492188 243.1328125 215.68359375 C241.28674343 205.11997632 237.85634043 195.19152947 234.2824707 185.10424805 C233.6875 183.1875 233.6875 183.1875 233.6875 181.1875 C191.90674748 180.01032232 156.86044607 198.3543661 122.3671875 220.375 C120.92666016 221.29345703 120.92666016 221.29345703 119.45703125 222.23046875 C118.60729736 222.77727295 117.75756348 223.32407715 116.88208008 223.88745117 C113.94146629 225.62944343 112.38083734 226.34224485 108.9921875 225.5859375 C107.86039063 225.24820313 106.72859375 224.91046875 105.5625 224.5625 C72.41899783 215.16968897 37.84173482 211.74904533 3.5 211.8125 C1.89114426 211.81281723 1.89114426 211.81281723 0.24978638 211.81314087 C-32.5086153 211.87697971 -64.26242619 215.83879454 -96.01660156 224.01953125 C-105.08337879 226.29214382 -105.08337879 226.29214382 -109.20581055 224.24926758 C-111.4573492 222.87704998 -113.63411173 221.4230752 -115.8125 219.9375 C-143.63814292 201.69327703 -179.03359031 181.272583 -213.35546875 181.1328125 C-214.08596436 181.12983154 -214.81645996 181.12685059 -215.5690918 181.1237793 C-218.81723913 181.12554671 -222.06454639 181.15202478 -225.3125 181.1875 C-229.17964458 191.71902374 -232.86745495 202.21813879 -235.3125 213.1875 C-235.49127686 213.98897461 -235.67005371 214.79044922 -235.85424805 215.61621094 C-237.58892995 224.45883886 -237.65082646 233.21837054 -237.62817383 242.19384766 C-237.62503064 244.78721888 -237.64849112 247.37942649 -237.67382812 249.97265625 C-237.72994581 264.69524399 -236.41791851 278.9845877 -230.984375 292.8046875 C-230.22348808 295.50318179 -230.21226793 296.62724432 -231.3125 299.1875 C-232.80859375 301.01953125 -232.80859375 301.01953125 -234.75 303 C-240.4215204 309.18895786 -244.86330757 316.09603207 -249.3125 323.1875 C-249.67375977 323.76129395 -250.03501953 324.33508789 -250.40722656 324.92626953 C-279.48418297 371.74208411 -279.12136563 431.35251115 -267.54150391 483.67089844 C-260.65158625 512.38359215 -249.07966605 540.84342617 -229.3125 563.1875 C-228.46945312 564.16332031 -227.62640625 565.13914062 -226.7578125 566.14453125 C-200.09186074 596.53119978 -161.9788797 612.9765758 -123.3125 622.1875 C-122.53986816 622.37505859 -121.76723633 622.56261719 -120.97119141 622.75585938 C-106.26448201 626.26999222 -91.28514547 628.18319881 -76.3125 630.1875 C-76.70646973 630.64133057 -77.10043945 631.09516113 -77.50634766 631.56274414 C-92.08750987 648.44913142 -100.54996799 666.97819662 -103.3125 689.1875 C-130.19116786 699.91037282 -159.56680004 705.90358074 -187.25 694.25 C-188.6140053 693.5822327 -189.96858229 692.89482511 -191.3125 692.1875 C-192.04597656 691.81882812 -192.77945313 691.45015625 -193.53515625 691.0703125 C-209.28174781 682.80537765 -220.7651661 669.8837617 -230.3125 655.1875 C-236.32317093 646.06860825 -242.66548912 637.94614607 -250.3125 630.1875 C-251.04082031 629.44628906 -251.76914062 628.70507812 -252.51953125 627.94140625 C-266.70418131 614.44098792 -283.71534839 608.73879761 -302.921875 608.95703125 C-307.73262109 609.11745757 -313.72243229 609.59743229 -317.3125 613.1875 C-318.01249502 617.28747081 -317.29034768 619.72570036 -315 623.0625 C-310.35101006 628.80794984 -304.15777811 632.7682853 -297.953125 636.671875 C-275.05133176 651.12761683 -259.35331037 680.54268526 -249.9375 705.3125 C-242.66767242 723.31514734 -227.32068602 737.23783906 -209.66967773 744.8190918 C-192.58205091 751.65908439 -175.22925007 754.58159415 -156.875 754.5625 C-155.55983398 754.56378906 -154.24466797 754.56507813 -152.88964844 754.56640625 C-139.11347525 754.47154684 -125.60313916 752.65325612 -112.00683594 750.5546875 C-109.3125 750.1875 -109.3125 750.1875 -106.3125 750.1875 C-106.19647517 761.65338398 -106.10771796 773.11912751 -106.05343914 784.58547974 C-106.0273834 789.91022529 -105.99205855 795.23456819 -105.93530273 800.55908203 C-105.88083992 805.70085591 -105.85104921 810.84224331 -105.83811378 815.98428345 C-105.82889953 817.94265829 -105.81090603 819.9010128 -105.78384972 821.85922241 C-105.74736946 824.60973245 -105.74256253 827.35866064 -105.74487305 830.109375 C-105.72689667 830.91282852 -105.70892029 831.71628204 -105.69039917 832.54408264 C-105.74443382 838.51770245 -107.52855106 842.56336219 -111.3125 847.1875 C-118.71282577 853.17074211 -126.07084417 853.99035957 -135.3125 853.1875 C-139.71577798 852.11095949 -143.85351207 850.54643925 -148.0625 848.875 C-149.22628174 848.42785645 -150.39006348 847.98071289 -151.58911133 847.52001953 C-163.39400244 842.91007154 -174.90068663 837.69012368 -186.3125 832.1875 C-187.06031738 831.82946289 -187.80813477 831.47142578 -188.57861328 831.10253906 C-193.20067009 828.8798751 -197.77092866 826.57008822 -202.3125 824.1875 C-203.06917969 823.79127441 -203.82585937 823.39504883 -204.60546875 822.98681641 C-217.66017023 816.09946283 -230.09657298 808.46620738 -242.3125 800.1875 C-243.06160645 799.6807373 -243.81071289 799.17397461 -244.58251953 798.65185547 C-254.65409371 791.79532603 -264.19688377 784.42488587 -273.56103516 776.63476562 C-275.97357287 774.64124408 -278.42841065 772.70148929 -280.875 770.75 C-291.79302609 761.77583612 -301.80851854 751.77788798 -311.8125 741.8125 C-312.649021 740.98065186 -313.48554199 740.14880371 -314.34741211 739.29174805 C-319.20859027 734.41789152 -323.84732011 729.42530969 -328.3125 724.1875 C-329.20142622 723.16632121 -330.09072155 722.14546356 -330.98046875 721.125 C-338.15495814 712.760324 -344.8365635 704.10224662 -351.3125 695.1875 C-351.8684082 694.42550293 -352.42431641 693.66350586 -352.99707031 692.87841797 C-367.38809875 673.05520291 -379.31365497 652.05030583 -390.3125 630.1875 C-390.9636377 628.90721924 -390.9636377 628.90721924 -391.62792969 627.60107422 C-411.33470191 588.64952558 -423.98825762 545.30559923 -430.3125 502.1875 C-430.49586914 501.00140137 -430.67923828 499.81530273 -430.86816406 498.59326172 C-436.76565305 459.28165787 -437.11652383 417.53577658 -431.3125 378.1875 C-431.03913818 376.29475342 -431.03913818 376.29475342 -430.76025391 374.36376953 C-428.40832554 358.45435934 -425.49500328 342.72042156 -421.3125 327.1875 C-420.94584229 325.81779053 -420.94584229 325.81779053 -420.57177734 324.42041016 C-405.24151111 267.93390566 -379.08170879 213.89366926 -342.3125 168.1875 C-341.590625 167.28515625 -340.86875 166.3828125 -340.125 165.453125 C-337.87832409 162.67687549 -335.60328674 159.92746061 -333.3125 157.1875 C-332.87744141 156.66607422 -332.44238281 156.14464844 -331.99414062 155.60742188 C-320.72451653 142.14427433 -308.96295296 128.27767901 -295.5625 116.875 C-292.37064878 114.12951878 -289.27331173 111.30160385 -286.1875 108.4375 C-280.37302833 103.13701477 -274.25618372 98.30056183 -268.01953125 93.50927734 C-266.45820542 92.30032168 -264.9155563 91.06734435 -263.375 89.83203125 C-245.88558542 75.94748271 -226.70930593 64.19057619 -207.3125 53.1875 C-206.64524902 52.8069043 -205.97799805 52.42630859 -205.29052734 52.03417969 C-143.44739368 17.0372963 -70.75009929 -0.07703874 0 0 Z " fill="#FEFEFE" transform="translate(637.3125,201.8125)"/>
</svg>
