<?xml version="1.0" encoding="UTF-8"?>
<svg version="1.1" xmlns="http://www.w3.org/2000/svg" width="225" height="225">
<path d="M0 0 C74.25 0 148.5 0 225 0 C225 74.25 225 148.5 225 225 C150.75 225 76.5 225 0 225 C0 150.75 0 76.5 0 0 Z " fill="#020202" transform="translate(0,0)"/>
<path d="M0 0 C74.25 0 148.5 0 225 0 C225 74.25 225 148.5 225 225 C150.75 225 76.5 225 0 225 C0 150.75 0 76.5 0 0 Z M64 35 C63.0615625 35.60585938 62.123125 36.21171875 61.15625 36.8359375 C41.22106023 50.5553799 27.96225333 70.85162076 22.46948242 94.26098633 C21.60391943 99.31077893 21.77460956 104.42351943 21.75976562 109.53540039 C21.75014604 111.53218593 21.71898839 113.5288302 21.6875 115.52539062 C21.59492104 138.72799338 31.62857003 160.35219638 47.828125 176.86328125 C66.49681493 193.92395377 87.04185947 202.13842755 112.1875 202.25 C113.33025391 202.270625 114.47300781 202.29125 115.65039062 202.3125 C126.6759766 202.36236133 137.01407448 200.41291975 147.0625 195.8125 C148.06845215 195.35858887 148.06845215 195.35858887 149.09472656 194.89550781 C172.56406888 183.97147377 188.50209374 164.77701914 197.62109375 140.86328125 C205.39244475 119.463533 203.8179991 95.33315102 194.7265625 74.5703125 C189.99984003 64.79604928 183.45484976 56.80984261 176 49 C175.46117187 48.38640625 174.92234375 47.7728125 174.3671875 47.140625 C165.05468647 36.9389907 151.71979584 30.79352306 139 26 C137.86691406 25.56429688 136.73382813 25.12859375 135.56640625 24.6796875 C111.95375813 17.01428754 84.6405485 21.67437116 64 35 Z " fill="#010101" transform="translate(0,0)"/>
<path d="M0 0 C18.98812578 15.22167128 33.33400025 34.76873727 36.47216797 59.50488281 C38.84020823 84.19479007 34.2758666 107.33740865 18.8046875 127.203125 C18.10601562 128.04359375 17.40734375 128.8840625 16.6875 129.75 C15.92695313 130.67296875 15.16640625 131.5959375 14.3828125 132.546875 C0.8565741 148.19063953 -18.65708516 159.74882608 -39.3125 162.75 C-43.70671032 162.96383456 -48.10105559 162.93511316 -52.5 162.9375 C-53.66853516 162.94974609 -54.83707031 162.96199219 -56.04101562 162.97460938 C-78.80963009 163.01270522 -98.55495569 154.73382728 -114.9453125 139.109375 C-115.72648437 138.33078125 -116.50765625 137.5521875 -117.3125 136.75 C-118.15941406 135.91597656 -119.00632812 135.08195313 -119.87890625 134.22265625 C-138.39626533 115.40806829 -143.80227894 92.84939716 -143.60971069 67.16748047 C-143.27621242 42.88792343 -130.99512387 22.48670351 -114.19140625 5.62109375 C-105.02490314 -2.97355412 -94.11959651 -9.08191694 -82.3125 -13.25 C-81.26578125 -13.64316406 -80.2190625 -14.03632813 -79.140625 -14.44140625 C-52.47261075 -23.09946065 -22.39850386 -16.07798977 0 0 Z M-110.3125 17.75 C-110.93769531 18.37519531 -111.56289062 19.00039063 -112.20703125 19.64453125 C-125.56571782 33.96817938 -132.72424968 52.26405887 -132.5625 71.6875 C-132.57023437 72.61240234 -132.57796875 73.53730469 -132.5859375 74.49023438 C-132.53042472 94.29441695 -124.91375537 112.93510394 -111.05859375 127.03515625 C-110.15238281 127.93105469 -109.24617188 128.82695312 -108.3125 129.75 C-107.58160156 130.49121094 -106.85070312 131.23242188 -106.09765625 131.99609375 C-93.324086 144.19877818 -75.08343526 152.18985898 -57.375 152.0625 C-56.14209229 152.05512817 -56.14209229 152.05512817 -54.88427734 152.04760742 C-32.77668687 151.63396511 -13.99146742 144.47616454 2.30859375 129.22265625 C19.35022099 111.50943778 25.33889069 91.38095905 24.92578125 67.453125 C24.35164607 50.26866512 18.34041461 34.53684212 6.6875 21.75 C5.97207031 20.94304688 5.25664062 20.13609375 4.51953125 19.3046875 C-9.34416698 4.51372724 -29.55775131 -5.53342857 -49.92578125 -6.53125 C-72.98534469 -7.1891777 -93.94084011 1.37834011 -110.3125 17.75 Z " fill="#F8F8F8" transform="translate(165.3125,39.25)"/>
<path d="M0 0 C0 3.522141 -0.73265897 4.48180796 -2.6484375 7.375 C-3.23117432 8.26566162 -3.81391113 9.15632324 -4.41430664 10.07397461 C-5.74648807 12.06204514 -7.08714248 14.04445875 -8.43530273 16.02172852 C-11.89359879 21.12795593 -15.1530571 26.14368542 -17.96951294 31.62541199 C-26.31565664 47.82802672 -26.31565664 47.82802672 -33 53 C-42.74541897 56.07629244 -53.0848106 54.72118273 -63 53 C-59.13322127 49.0303032 -55.0735262 45.3648914 -50.875 41.75 C-50.20903809 41.17499756 -49.54307617 40.59999512 -48.85693359 40.00756836 C-44.29235551 36.07961434 -39.67616794 32.22354982 -34.99609375 28.43359375 C-32.66598888 26.54095316 -30.34725118 24.63711236 -28.03515625 22.72265625 C-19.96195098 16.03992805 -11.83332584 9.44855209 -3.5625 3.01171875 C-1.19854243 1.23839123 -1.19854243 1.23839123 0 0 Z " fill="#F4F4F4" transform="translate(151,56)"/>
<path d="M0 0 C2.98095703 -0.34057617 2.98095703 -0.34057617 6.7578125 -0.29296875 C7.42086395 -0.28872391 8.08391541 -0.28447906 8.76705933 -0.28010559 C10.88678441 -0.26329971 13.00556188 -0.22564701 15.125 -0.1875 C16.56118419 -0.17245549 17.99738328 -0.15876668 19.43359375 -0.14648438 C22.95603764 -0.1133909 26.47792636 -0.0615968 30 0 C27.27169693 2.75566177 24.54830006 5.47585989 21.6171875 8.015625 C21.01342285 8.53954834 20.4096582 9.06347168 19.78759766 9.60327148 C18.84086182 10.4184021 18.84086182 10.4184021 17.875 11.25 C17.20903809 11.82500244 16.54307617 12.40000488 15.85693359 12.99243164 C11.29235551 16.92038566 6.67616794 20.77645018 1.99609375 24.56640625 C-0.33401112 26.45904684 -2.65274882 28.36288764 -4.96484375 30.27734375 C-11.90389796 36.02191243 -18.86040349 41.73829775 -25.9375 47.3125 C-26.52249268 47.77446777 -27.10748535 48.23643555 -27.71020508 48.71240234 C-31.74913746 51.87456873 -31.74913746 51.87456873 -34 53 C-32.29063821 49.38743128 -30.23779652 46.01108599 -28.125 42.625 C-27.50915039 41.63753784 -27.50915039 41.63753784 -26.88085938 40.63012695 C-19.47072553 28.87465557 -11.64265863 17.38125374 -3.90429688 5.84057617 C-2.60029388 3.89543837 -1.29899191 1.94848786 0 0 Z " fill="#F7F7F7" transform="translate(106,118)"/>
</svg>
