<?xml version="1.0" encoding="UTF-8"?>
<svg version="1.1" xmlns="http://www.w3.org/2000/svg" width="225" height="225">
<path d="M0 0 C74.25 0 148.5 0 225 0 C225 74.25 225 148.5 225 225 C150.75 225 76.5 225 0 225 C0 150.75 0 76.5 0 0 Z " fill="#0F1010" transform="translate(0,0)"/>
<path d="M0 0 C2.5 0.75 2.5 0.75 5.5 2.75 C5.86076355 4.69888306 5.86076355 4.69888306 5.84057617 7.10791016 C5.84034958 8.00869293 5.84012299 8.90947571 5.83988953 9.83755493 C5.82440567 10.81155243 5.80892181 11.78554993 5.79296875 12.7890625 C5.78872391 13.78505463 5.78447906 14.78104675 5.78010559 15.80722046 C5.7632768 18.99675225 5.72561676 22.18565833 5.6875 25.375 C5.6724586 27.53384506 5.65876925 29.6927 5.64648438 31.8515625 C5.61335967 37.15125612 5.56311896 42.45058337 5.5 47.75 C6.21552536 47.74333817 6.93105072 47.73667633 7.66825867 47.72981262 C14.42136886 47.66962615 21.17440386 47.62398743 27.92772198 47.59456348 C31.3994411 47.57892757 34.87093803 47.55772788 38.3425293 47.52368164 C42.33644712 47.48475937 46.33013263 47.47027371 50.32421875 47.45703125 C51.56709152 47.44154739 52.80996429 47.42606354 54.09049988 47.41011047 C55.25132584 47.40988388 56.41215179 47.40965729 57.6081543 47.40942383 C59.13704536 47.39943108 59.13704536 47.39943108 60.69682312 47.38923645 C63.97140528 47.81066897 65.83975963 48.8280517 68.5 50.75 C71.22222145 54.79208639 71.1378696 59.04467619 70.5 63.75 C69.27152635 66.2069473 68.24537871 67.70271795 66.5 69.75 C65.87867188 70.51570313 65.25734375 71.28140625 64.6171875 72.0703125 C63.1027883 73.93210077 61.58002771 75.78710642 60.05078125 77.63671875 C57.35805055 80.90579196 54.7365584 84.22841817 52.125 87.5625 C51.66262939 88.15240723 51.20025879 88.74231445 50.72387695 89.35009766 C48.86355827 91.72561617 47.00535921 94.10278236 45.1484375 96.48095703 C38.18531839 105.39609089 31.15185745 114.25043984 23.95556641 122.97900391 C22.65190607 124.565175 21.36212231 126.16272738 20.07421875 127.76171875 C19.04748047 128.99341797 19.04748047 128.99341797 18 130.25 C17.4328125 130.9409375 16.865625 131.631875 16.28125 132.34375 C14.5 133.75 14.5 133.75 11.96875 134.15625 C9.02267816 133.67145337 8.3182723 133.06579452 6.5 130.75 C6.10127258 128.71882629 6.10127258 128.71882629 6.06762695 126.37036133 C6.04783279 125.48967484 6.02803864 124.60898834 6.00764465 123.70161438 C6.00125473 122.75465195 5.99486481 121.80768951 5.98828125 120.83203125 C5.97033005 119.85965012 5.95237885 118.88726898 5.93388367 117.88542175 C5.87967533 114.77782536 5.84585102 111.67038348 5.8125 108.5625 C5.77933624 106.45635866 5.74484747 104.35023773 5.70898438 102.24414062 C5.62394269 97.07953839 5.55718159 91.91498281 5.5 86.75 C4.42671196 86.74786247 4.42671196 86.74786247 3.33174133 86.74568176 C-3.42172091 86.72782919 -10.17457065 86.68614987 -16.92772198 86.61790943 C-20.39941175 86.58366304 -23.87066263 86.55853332 -27.3425293 86.55444336 C-31.33695467 86.54933406 -35.33006706 86.50420534 -39.32421875 86.45703125 C-40.56709152 86.4609639 -41.80996429 86.46489655 -43.09049988 86.46894836 C-52.69300501 86.30645808 -52.69300501 86.30645808 -55.76098633 83.33081055 C-58.26181661 79.6194141 -59.0897122 76.93845298 -59.03125 72.37109375 C-57.92691341 66.92249191 -53.97371217 62.9288584 -50.5 58.75 C-49.75621094 57.82832031 -49.01242188 56.90664062 -48.24609375 55.95703125 C-46.01520143 53.20624402 -43.75830838 50.47829143 -41.5 47.75 C-36.65858727 41.79060938 -31.94603524 35.73925965 -27.28369141 29.6394043 C-23.86709591 25.18658533 -20.31760042 20.85440636 -16.73828125 16.53125 C-13.50491368 12.51352276 -10.47372227 8.35715488 -7.4453125 4.18359375 C-3.79756243 -0.37975624 -3.79756243 -0.37975624 0 0 Z " fill="#31B179" transform="translate(106.5,45.25)"/>
<path d="M0 0 C2.5 0.75 2.5 0.75 5.5 2.75 C5.7863593 5.44204148 5.87835144 7.90319556 5.84057617 10.59619141 C5.84123329 11.81094902 5.84123329 11.81094902 5.84190369 13.05024719 C5.83980914 15.73426194 5.81644717 18.41765652 5.79296875 21.1015625 C5.78737515 22.95958108 5.78310394 24.81760408 5.78010559 26.67562866 C5.76863819 31.57153489 5.7391548 36.46717512 5.70599365 41.36297607 C5.67533352 46.35653077 5.66160895 51.35012835 5.64648438 56.34375 C5.61428685 66.14595036 5.56306771 75.94795308 5.5 85.75 C-1.97573274 85.86600357 -9.45127049 85.95476984 -16.92772198 86.00906086 C-20.39964849 86.03512227 -23.87095792 86.07045387 -27.3425293 86.12719727 C-31.33648499 86.19206834 -35.32979558 86.21620862 -39.32421875 86.23828125 C-40.56709152 86.26408768 -41.80996429 86.2898941 -43.09049988 86.31648254 C-52.69298134 86.31960655 -52.69298134 86.31960655 -55.76098633 83.34448242 C-58.25464056 79.62413095 -59.08976812 76.94282226 -59.03125 72.37109375 C-57.92691341 66.92249191 -53.97371217 62.9288584 -50.5 58.75 C-49.75621094 57.82832031 -49.01242188 56.90664062 -48.24609375 55.95703125 C-46.01520143 53.20624402 -43.75830838 50.47829143 -41.5 47.75 C-36.65858727 41.79060938 -31.94603524 35.73925965 -27.28369141 29.6394043 C-23.86709591 25.18658533 -20.31760042 20.85440636 -16.73828125 16.53125 C-13.50491368 12.51352276 -10.47372227 8.35715488 -7.4453125 4.18359375 C-3.79756243 -0.37975624 -3.79756243 -0.37975624 0 0 Z " fill="#3FCD8F" transform="translate(106.5,45.25)"/>
<path d="M0 0 C0.66 0.33 1.32 0.66 2 1 C4.04168758 9.66754159 4.19820829 21.40700396 2 30 C2.33 30.66 2.66 31.32 3 32 C3.13415472 34.6723621 3.04318541 37.32250488 3 40 C3.33 40 3.66 40 4 40 C4.33 37.36 4.66 34.72 5 32 C5.66 32 6.32 32 7 32 C7.33 35.63 7.66 39.26 8 43 C8.66 43 9.32 43 10 43 C10.33 42.01 10.66 41.02 11 40 C12.65 40 14.3 40 16 40 C15.79375 39.05125 15.5875 38.1025 15.375 37.125 C15.25125 36.09375 15.1275 35.0625 15 34 C15.66 33.34 16.32 32.68 17 32 C17.99 32 18.98 32 20 32 C19.65383287 38.23887575 17.9044268 41.11494366 13.75 45.4375 C13.27175781 45.97826172 12.79351562 46.51902344 12.30078125 47.07617188 C10.08421821 49.45191898 8.55548973 50.88873963 5.328125 51.53515625 C2.55558379 50.89784392 1.75140785 50.20814558 0 48 C-0.40545654 45.9510498 -0.40545654 45.9510498 -0.44824219 43.57617188 C-0.47126404 42.68514771 -0.49428589 41.79412354 -0.51800537 40.87609863 C-0.52753235 39.91667358 -0.53705933 38.95724854 -0.546875 37.96875 C-0.56719788 36.98128784 -0.58752075 35.99382568 -0.60845947 34.97644043 C-0.6486731 32.88854872 -0.68183665 30.80051111 -0.70849609 28.71240234 C-0.74984202 25.51222797 -0.81246029 22.31302325 -0.87890625 19.11328125 C-0.9153101 17.08595952 -0.950507 15.05861568 -0.984375 13.03125 C-1.0019989 12.07182495 -1.0196228 11.1123999 -1.03778076 10.12390137 C-1.04819397 9.2328772 -1.05860718 8.34185303 -1.06933594 7.42382812 C-1.08027283 6.64011841 -1.09120972 5.85640869 -1.10247803 5.0489502 C-1 3 -1 3 0 0 Z " fill="#3BAC7C" transform="translate(113,128)"/>
<path d="M0 0 C0.66 0.66 1.32 1.32 2 2 C-15.36810065 25.41477273 -15.36810065 25.41477273 -25 36 C-26.16309857 32.51070429 -25.76950922 31.75901766 -24.5 28.4375 C-23.5842094 26.13256437 -23.5842094 26.13256437 -23 24 C-23.33 23.34 -23.66 22.68 -24 22 C-15.81818182 17 -15.81818182 17 -12 17 C-12.66 16.67 -13.32 16.34 -14 16 C-14 15.34 -14 14.68 -14 14 C-14.66 13.67 -15.32 13.34 -16 13 C-16 12.01 -16 11.02 -16 10 C-13.36 10 -10.72 10 -8 10 C-8.061875 9.236875 -8.12375 8.47375 -8.1875 7.6875 C-8 5 -8 5 -6.75 3.25 C-4.8258906 1.87563614 -3.29941397 1.45988279 -1 1 C-0.67 0.67 -0.34 0.34 0 0 Z " fill="#44BA85" transform="translate(160,126)"/>
<path d="M0 0 C5.31949029 -0.21277961 10.1006606 -0.38992166 15 2 C17.6234386 6.16504684 17.647609 10.22283229 17 15 C15.76372014 17.47255972 14.75006692 18.93593691 13 21 C12.27425781 21.91652344 11.54851562 22.83304688 10.80078125 23.77734375 C4.38143087 31.80928457 4.38143087 31.80928457 2 33 C0.9375 30.625 0.9375 30.625 0 28 C0.33 27.34 0.66 26.68 1 26 C3.5625 25.375 3.5625 25.375 6 25 C7.17076699 21.01939223 8.25749403 17.08378283 9 13 C11.475 13.99 11.475 13.99 14 15 C14.33 12.03 14.66 9.06 15 6 C14.01 6 13.02 6 12 6 C11.67 6.66 11.34 7.32 11 8 C10.67 6.35 10.34 4.7 10 3 C9.34 3 8.68 3 8 3 C8 2.34 8 1.68 8 1 C5.36 1 2.72 1 0 1 C0 0.67 0 0.34 0 0 Z " fill="#50BE8D" transform="translate(160,94)"/>
<path d="M0 0 C0.99 0 1.98 0 3 0 C2.938125 0.721875 2.87625 1.44375 2.8125 2.1875 C3.03593995 5.53909925 4.19497887 7.21725908 6 10 C6 10.66 6 11.32 6 12 C12.96191129 13.79641894 19.42321498 14.33323901 26.59765625 14.4140625 C27.67252792 14.43342865 28.7473996 14.4527948 29.85484314 14.4727478 C33.257317 14.53209301 36.65982553 14.57874772 40.0625 14.625 C42.38217547 14.66322128 44.70183738 14.70227537 47.02148438 14.7421875 C52.68086837 14.83775703 58.34033539 14.92293378 64 15 C64 15.33 64 15.66 64 16 C56.52426726 16.11600357 49.04872951 16.20476984 41.57227802 16.25906086 C38.10035151 16.28512227 34.62904208 16.32045387 31.1574707 16.37719727 C27.16351501 16.44206834 23.17020442 16.46620862 19.17578125 16.48828125 C17.93290848 16.51408768 16.69003571 16.5398941 15.40950012 16.56648254 C5.80701866 16.56960655 5.80701866 16.56960655 2.73901367 13.59448242 C0.42000088 10.13468333 -0.12125557 8.4878898 -0.0625 4.375 C-0.05347656 3.55773437 -0.04445312 2.74046875 -0.03515625 1.8984375 C-0.02355469 1.27195312 -0.01195312 0.64546875 0 0 Z " fill="#58BE8F" transform="translate(48,115)"/>
<path d="M0 0 C0 2 0 4 0 6 C-0.99 6 -1.98 6 -3 6 C-3.226875 6.53625 -3.45375 7.0725 -3.6875 7.625 C-5 10 -5 10 -7.5625 12.875 C-10.23662259 15.77927631 -10.23662259 15.77927631 -10.5 19.25 C-10.665 20.1575 -10.83 21.065 -11 22 C-12.65438613 22.69658363 -14.32254318 23.36096883 -16 24 C-17.84274976 27.01696409 -17.84274976 27.01696409 -19 30 C-19.66 30 -20.32 30 -21 30 C-20.67 30.99 -20.34 31.98 -20 33 C-25.75 38 -25.75 38 -28 38 C-28.33 38.99 -28.66 39.98 -29 41 C-29.66 40.34 -30.32 39.68 -31 39 C-30.46632813 38.35675781 -29.93265625 37.71351562 -29.3828125 37.05078125 C-24.72356157 31.40002883 -20.18922306 25.68138432 -15.74829102 19.85888672 C-12.23469028 15.26770869 -8.59903068 10.79193358 -4.91015625 6.33984375 C-3.21548389 4.26395675 -1.58922001 2.15715443 0 0 Z " fill="#52B186" transform="translate(95,55)"/>
<path d="M0 0 C7.3973076 -0.04629419 14.79458407 -0.08185426 22.19200706 -0.10362434 C25.62675459 -0.1140717 29.06140317 -0.12824805 32.49609375 -0.15087891 C36.44269638 -0.17672063 40.38925863 -0.18646493 44.3359375 -0.1953125 C45.57242035 -0.20563507 46.8089032 -0.21595764 48.08285522 -0.22659302 C49.22388702 -0.22674408 50.36491882 -0.22689514 51.54052734 -0.22705078 C52.548685 -0.231492 53.55684265 -0.23593323 54.59555054 -0.24050903 C57 0 57 0 59 2 C58.26700684 1.99476318 57.53401367 1.98952637 56.77880859 1.98413086 C44.03588027 1.90561804 31.29740942 1.860138 18.5625 2.375 C17.66515137 2.40585693 16.76780273 2.43671387 15.84326172 2.46850586 C11.49986946 2.6703582 7.95591594 3.00173445 4 5 C4 4.01 4 3.02 4 2 C2.68 2 1.36 2 0 2 C0 1.34 0 0.68 0 0 Z " fill="#449571" transform="translate(113,93)"/>
<path d="M0 0 C0.66 0.33 1.32 0.66 2 1 C3.81335586 8.69820885 4.45094661 20.24697131 2.51147461 27.93701172 C1.9737885 30.10572182 1.7950823 32.09835394 1.68359375 34.328125 C1.64169922 35.12734375 1.59980469 35.9265625 1.55664062 36.75 C1.51732422 37.575 1.47800781 38.4 1.4375 39.25 C1.39431641 40.09046875 1.35113281 40.9309375 1.30664062 41.796875 C1.20091457 43.86440671 1.09998705 45.93218281 1 48 C0.67 48 0.34 48 0 48 C-0.16820455 41.64641625 -0.32809887 35.2926626 -0.48217773 28.9387207 C-0.53559441 26.77656299 -0.59092351 24.61445166 -0.64819336 22.45239258 C-0.73011333 19.3472697 -0.80518663 16.24204578 -0.87890625 13.13671875 C-0.90594131 12.16788254 -0.93297638 11.19904633 -0.96083069 10.20085144 C-0.98092697 9.3001442 -1.00102325 8.39943695 -1.02172852 7.47143555 C-1.04171402 6.67867722 -1.06169952 5.88591888 -1.08229065 5.06913757 C-1 3 -1 3 0 0 Z " fill="#41996F" transform="translate(113,128)"/>
<path d="M0 0 C0.66 0.66 1.32 1.32 2 2 C-5.11578947 13.22105263 -5.11578947 13.22105263 -11 15 C-11.66 14.67 -12.32 14.34 -13 14 C-13.33 14.66 -13.66 15.32 -14 16 C-14 15.34 -14 14.68 -14 14 C-14.66 13.67 -15.32 13.34 -16 13 C-16 12.01 -16 11.02 -16 10 C-13.36 10 -10.72 10 -8 10 C-8.061875 9.236875 -8.12375 8.47375 -8.1875 7.6875 C-8 5 -8 5 -6.75 3.25 C-4.8258906 1.87563614 -3.29941397 1.45988279 -1 1 C-0.67 0.67 -0.34 0.34 0 0 Z " fill="#3DC789" transform="translate(160,126)"/>
<path d="M0 0 C1.32 0 2.64 0 4 0 C4.15114765 6.95279171 0.59414993 10.17991482 -4.06640625 15.05859375 C-4.70449219 15.69925781 -5.34257813 16.33992188 -6 17 C-6.66 16.67 -7.32 16.34 -8 16 C-8 14.35 -8 12.7 -8 11 C-7.34 11 -6.68 11 -6 11 C-5.67 10.01 -5.34 9.02 -5 8 C-3.35 8 -1.7 8 0 8 C-0.185625 7.05125 -0.37125 6.1025 -0.5625 5.125 C-1 2 -1 2 0 0 Z " fill="#44B381" transform="translate(129,160)"/>
<path d="M0 0 C1.1015625 3.7265625 1.1015625 3.7265625 0.1875 6.1875 C-1 8 -1 8 -3 9 C-3.268125 9.5775 -3.53625 10.155 -3.8125 10.75 C-5.67804783 14.2847222 -8.4080602 17.2040301 -12 19 C-12.66 18.34 -13.32 17.68 -14 17 C-13.49210938 16.443125 -12.98421875 15.88625 -12.4609375 15.3125 C-8.02251729 10.39200419 -3.86971686 5.37949276 0 0 Z " fill="#041E0E" transform="translate(149,144)"/>
<path d="M0 0 C-1.96742283 4.16932012 -4.59072141 7.52477153 -7.4375 11.125 C-7.92798828 11.75792969 -8.41847656 12.39085937 -8.92382812 13.04296875 C-9.40142578 13.65011719 -9.87902344 14.25726563 -10.37109375 14.8828125 C-10.80349365 15.43340332 -11.23589355 15.98399414 -11.68139648 16.55126953 C-13 18 -13 18 -16 20 C-14.86922864 16.08579143 -13.91187063 13.79054268 -11 11 C-10.7525 10.236875 -10.505 9.47375 -10.25 8.6875 C-8.49265198 4.90920176 -4.47690511 0 0 0 Z " fill="#021E0B" transform="translate(98,51)"/>
<path d="M0 0 C0.66 0 1.32 0 2 0 C1.6875 1.875 1.6875 1.875 1 4 C0.01 4.66 -0.98 5.32 -2 6 C-2.33 6.825 -2.66 7.65 -3 8.5 C-4 11 -4 11 -7 13 C-7.33 13.99 -7.66 14.98 -8 16 C-9.65 16.33 -11.3 16.66 -13 17 C-9.23635466 10.9454401 -4.83019381 5.24048054 0 0 Z " fill="#50B989" transform="translate(62,97)"/>
<path d="M0 0 C14.85 0 29.7 0 45 0 C45.66 1.32 46.32 2.64 47 4 C46.37456299 3.67854004 45.74912598 3.35708008 45.10473633 3.02587891 C40.82565685 1.61196903 36.80466837 1.64390038 32.32421875 1.5859375 C31.3990596 1.56657135 30.47390045 1.5472052 29.52070618 1.5272522 C26.57639683 1.46764746 23.63204798 1.42114752 20.6875 1.375 C18.68683225 1.33680264 16.68618064 1.29774988 14.68554688 1.2578125 C9.7904962 1.16196159 4.89536855 1.07786 0 1 C0 0.67 0 0.34 0 0 Z " fill="#031308" transform="translate(126,91)"/>
<path d="M0 0 C0.8971875 0.309375 0.8971875 0.309375 1.8125 0.625 C2.1425 2.605 2.4725 4.585 2.8125 6.625 C2.1525 5.965 1.4925 5.305 0.8125 4.625 C-1.25624034 3.9824765 -1.25624034 3.9824765 -3.1875 3.625 C-3.455625 4.594375 -3.72375 5.56375 -4 6.5625 C-4.391875 7.573125 -4.78375 8.58375 -5.1875 9.625 C-6.1775 9.955 -7.1675 10.285 -8.1875 10.625 C-8.8475 9.965 -9.5075 9.305 -10.1875 8.625 C-9.42337913 7.49543002 -8.65090197 6.37151022 -7.875 5.25 C-7.44574219 4.62351562 -7.01648438 3.99703125 -6.57421875 3.3515625 C-4.61134575 0.90764739 -3.23040507 -0.55378373 0 0 Z " fill="#49B185" transform="translate(106.1875,45.375)"/>
<path d="M0 0 C0.33 0.66 0.66 1.32 1 2 C0.06421005 4.35981813 -0.93347808 6.69631264 -2 9 C-2.99 9 -3.98 9 -5 9 C-5.2475 9.598125 -5.495 10.19625 -5.75 10.8125 C-7.16370012 13.28647521 -8.65055383 14.43370255 -11 16 C-11.66 15.67 -12.32 15.34 -13 15 C-12.31292969 14.25234375 -11.62585938 13.5046875 -10.91796875 12.734375 C-10.0077189 11.73966898 -9.09756787 10.74487252 -8.1875 9.75 C-7.73568359 9.25886719 -7.28386719 8.76773438 -6.81835938 8.26171875 C-4.39181973 5.60492352 -2.09650029 2.92534924 0 0 Z " fill="#092C18" transform="translate(134,163)"/>
<path d="M0 0 C6.27 0 12.54 0 19 0 C14.31339931 2.34330035 11.18681789 3.25902602 6 4 C5.01 4.495 5.01 4.495 4 5 C4 4.01 4 3.02 4 2 C2.68 2 1.36 2 0 2 C0 1.34 0 0.68 0 0 Z " fill="#307F5B" transform="translate(113,93)"/>
<path d="M0 0 C-0.93137592 1.29608947 -1.8703566 2.58671632 -2.8125 3.875 C-3.33457031 4.59429687 -3.85664063 5.31359375 -4.39453125 6.0546875 C-6 8 -6 8 -9 10 C-8.71872579 8.51882199 -8.42466268 7.04006751 -8.125 5.5625 C-7.96257812 4.73878906 -7.80015625 3.91507813 -7.6328125 3.06640625 C-7.42398438 2.38449219 -7.21515625 1.70257813 -7 1 C-4.53721199 -0.231394 -2.7204945 -0.07159196 0 0 Z " fill="#4DB087" transform="translate(143,152)"/>
<path d="M0 0 C0.66 0 1.32 0 2 0 C2.33 0.99 2.66 1.98 3 3 C-2.75 8 -2.75 8 -5 8 C-5.33 8.99 -5.66 9.98 -6 11 C-6.66 10.34 -7.32 9.68 -8 9 C-6.71520959 7.49410612 -5.42195918 5.99542625 -4.125 4.5 C-3.04605469 3.24703125 -3.04605469 3.24703125 -1.9453125 1.96875 C-1.30335937 1.3190625 -0.66140625 0.669375 0 0 Z " fill="#4CB989" transform="translate(72,85)"/>
<path d="M0 0 C2.475 0.99 2.475 0.99 5 2 C4.42865502 5.3138009 3.50248134 6.78626651 1 9 C-0.0036652 9.99632131 -1.00418113 10.99583628 -2 12 C-1.85962479 10.18706911 -1.71255111 8.3746557 -1.5625 6.5625 C-1.48128906 5.55316406 -1.40007812 4.54382813 -1.31640625 3.50390625 C-1 1 -1 1 0 0 Z " fill="#42CC90" transform="translate(169,107)"/>
<path d="M0 0 C0.99 0 1.98 0 3 0 C4.26264601 4.29299643 3.62950412 6.87831311 2 11 C1.67 10.34 1.34 9.68 1 9 C0.34 9 -0.32 9 -1 9 C-0.67 6.03 -0.34 3.06 0 0 Z " fill="#051207" transform="translate(178,101)"/>
<path d="M0 0 C0.66 0.33 1.32 0.66 2 1 C2.4140625 3.109375 2.4140625 3.109375 2.625 5.75 C2.69976562 6.61109375 2.77453125 7.4721875 2.8515625 8.359375 C2.99511127 10.91303211 3.02759398 13.44295776 3 16 C2.34 15.67 1.68 15.34 1 15 C0.33203125 12.3828125 0.33203125 12.3828125 -0.1875 9.125 C-0.36667969 8.05507812 -0.54585938 6.98515625 -0.73046875 5.8828125 C-1 3 -1 3 0 0 Z " fill="#319B6B" transform="translate(113,128)"/>
<path d="M0 0 C0.66 0.66 1.32 1.32 2 2 C-0.31 5.3 -2.62 8.6 -5 12 C-6.07985222 7.68059114 -6.02885645 6.76787627 -4 3 C-1.875 1.1875 -1.875 1.1875 0 0 Z " fill="#54BB8C" transform="translate(160,126)"/>
<path d="M0 0 C1.65 0 3.3 0 5 0 C4.6875 2.375 4.6875 2.375 4 5 C3.01 5.66 2.02 6.32 1 7 C-0.0625 4.625 -0.0625 4.625 -1 2 C-0.67 1.34 -0.34 0.68 0 0 Z " fill="#43C78E" transform="translate(161,120)"/>
<path d="M0 0 C0.99 0 1.98 0 3 0 C2.979375 0.763125 2.95875 1.52625 2.9375 2.3125 C2.87057159 5.10185786 2.87057159 5.10185786 4 8 C2.68 8 1.36 8 0 8 C0 5.36 0 2.72 0 0 Z " fill="#4BC58F" transform="translate(48,115)"/>
<path d="M0 0 C0.33 0.66 0.66 1.32 1 2 C-0.4375 4.625 -0.4375 4.625 -2 7 C-3.32 6.34 -4.64 5.68 -6 5 C-3.375 1.125 -3.375 1.125 0 0 Z " fill="#4FBF8C" transform="translate(102,49)"/>
<path d="M0 0 C0.66 0.33 1.32 0.66 2 1 C-0.64 4.3 -3.28 7.6 -6 11 C-6.33 9.68 -6.66 8.36 -7 7 C-5.8125 5.5 -5.8125 5.5 -4 4 C-2.9171875 2.9171875 -2.9171875 2.9171875 -1.8125 1.8125 C-1.214375 1.214375 -0.61625 0.61625 0 0 Z " fill="#52AA85" transform="translate(173,112)"/>
<path d="M0 0 C0 0.99 0 1.98 0 3 C-3.4352048 5.29013653 -4.985331 5.17842973 -9 5 C-8.67 4.01 -8.34 3.02 -8 2 C-6.865625 1.855625 -5.73125 1.71125 -4.5625 1.5625 C-1.19222799 1.38828522 -1.19222799 1.38828522 0 0 Z " fill="#031209" transform="translate(124,177)"/>
<path d="M0 0 C0.33 0.99 0.66 1.98 1 3 C1.66 3.33 2.32 3.66 3 4 C1.02 6.31 -0.96 8.62 -3 11 C-3.33 10.01 -3.66 9.02 -4 8 C-3.34 8 -2.68 8 -2 8 C-2 6.68 -2 5.36 -2 4 C-1.34 4 -0.68 4 0 4 C0 2.68 0 1.36 0 0 Z " fill="#082A17" transform="translate(61,92)"/>
<path d="M0 0 C0.99 0.33 1.98 0.66 3 1 C0.69 3.64 -1.62 6.28 -4 9 C-4.33 8.34 -4.66 7.68 -5 7 C-3.85813411 4.05017979 -2.32718447 2.11562225 0 0 Z " fill="#062514" transform="translate(87,62)"/>
<path d="M0 0 C0 3.19610552 -0.54671542 4.41717626 -2 7.1875 C-2.37125 7.90292969 -2.7425 8.61835937 -3.125 9.35546875 C-3.558125 10.16951172 -3.558125 10.16951172 -4 11 C-4.66 9.68 -5.32 8.36 -6 7 C-4.02 4.69 -2.04 2.38 0 0 Z " fill="#072012" transform="translate(169,119)"/>
<path d="M0 0 C2.31 0.66 4.62 1.32 7 2 C6.01 2.33 5.02 2.66 4 3 C4 3.66 4 4.32 4 5 C2.68 4.67 1.36 4.34 0 4 C0 2.68 0 1.36 0 0 Z " fill="#051D11" transform="translate(51,129)"/>
<path d="M0 0 C2.97 0.495 2.97 0.495 6 1 C6.33 2.65 6.66 4.3 7 6 C6.01 6.495 6.01 6.495 5 7 C5 5.35 5 3.7 5 2 C4.34 2 3.68 2 3 2 C2.67 2.66 2.34 3.32 2 4 C1.34 2.68 0.68 1.36 0 0 Z " fill="#151A18" transform="translate(65,80)"/>
<path d="M0 0 C0.99 0.33 1.98 0.66 3 1 C3.99 1 4.98 1 6 1 C4.68 2.65 3.36 4.3 2 6 C1.34 5.67 0.68 5.34 0 5 C0 3.35 0 1.7 0 0 Z " fill="#4EB283" transform="translate(121,171)"/>
<path d="M0 0 C0.99 0 1.98 0 3 0 C1.63016497 3.16115776 1.0109362 3.9927092 -2 6 C-2 4.68 -2 3.36 -2 2 C-1.34 2 -0.68 2 0 2 C0 1.34 0 0.68 0 0 Z " fill="#05190C" transform="translate(52,105)"/>
<path d="M0 0 C1.32 0 2.64 0 4 0 C4 1.32 4 2.64 4 4 C2.35 3.67 0.7 3.34 -1 3 C-0.67 2.01 -0.34 1.02 0 0 Z " fill="#3BBC83" transform="translate(129,160)"/>
<path d="M0 0 C0.66 0.99 1.32 1.98 2 3 C-0.97 5.475 -0.97 5.475 -4 8 C-4 4.09161134 -2.49432124 2.88405893 0 0 Z " fill="#47C690" transform="translate(89,65)"/>
</svg>
